<?xml version="1.0" encoding="utf-8"?>
<!-- Generator: Adobe Illustrator 26.4.1, SVG Export Plug-In . SVG Version: 6.00 Build 0)  -->
<svg version="1.1" xmlns="http://www.w3.org/2000/svg" xmlns:xlink="http://www.w3.org/1999/xlink" x="0px" y="0px"
	 viewBox="0 0 800 543.7" style="enable-background:new 0 0 800 543.7;" xml:space="preserve">
<style type="text/css">
	.st0{fill:none;}
	.st1{fill:none;stroke:#000000;}
	.st2{fill:#464646;}
	.st3{font-family:'Roboto-Regular';}
	.st4{font-size:16px;}
	.st5{fill:none;stroke:#D9D9D9;stroke-opacity:0.7;}
	.st6{fill:#C8C8C8;}
	.st7{fill:#0397CC;}
	.st8{fill:none;stroke:#464646;}
	.st9{font-size:14px;}
	.st10{opacity:0.25;fill:#0397CC;}
	.st11{enable-background:new    ;}
	.st12{font-family:'Roboto-Bold';}
</style>
<g id="Layer_1">
	<g>
		<g>
			<g>
				<text transform="matrix(1 0 0 1 135.1677 513.2633)" class="st2 st3 st4">0</text>
			</g>
			<g>
				<line id="chart-group-2-axis-0-grid-1" class="st5" x1="291.9" y1="498.4" x2="291.9" y2="15.1"/>
				<text transform="matrix(1 0 0 1 282.7607 512.8432)" class="st2 st3 st4">20</text>
			</g>
			<g>
				<line id="chart-group-2-axis-0-grid-2" class="st5" x1="444.7" y1="498.4" x2="444.7" y2="15.1"/>
				<text transform="matrix(1 0 0 1 435.3358 512.9832)" class="st2 st3 st4">40</text>
			</g>
			<g>
				<line id="chart-group-2-axis-0-grid-3" class="st5" x1="597.6" y1="306.2" x2="597.6" y2="15.1"/>
				<text transform="matrix(1 0 0 1 588.8467 513.1232)" class="st2 st3 st4">60</text>
			</g>
			<g>
				<line id="chart-group-2-axis-0-grid-4" class="st5" x1="750.5" y1="498.4" x2="750.5" y2="15.1"/>
				<text transform="matrix(1 0 0 1 734.3799 513.2632)" class="st2 st3 st4">80%</text>
			</g>
		</g>
	</g>
	<g>
		<g>
			<path shape-rendering="auto" class="st6" d="M139,457.1L139,457.1h106.4l0,0v19l0,0H139l0,0V457.1z"/>
			<path shape-rendering="auto" class="st6" d="M139,434.9L139,434.9h106.4l0,0v19l0,0H139l0,0V434.9z"/>
			<path shape-rendering="auto" class="st6" d="M139,412.6L139,412.6h107.1l0,0v19l0,0H139l0,0V412.6z"/>
			<path shape-rendering="auto" class="st7" d="M139,390.4L139,390.4h111.8l0,0v19l0,0H139l0,0V390.4z"/>
			<path shape-rendering="auto" class="st6" d="M139,368.1L139,368.1h114.9l0,0v19l0,0H139l0,0V368.1z"/>
			<path shape-rendering="auto" class="st6" d="M139,345.9L139,345.9h136.7l0,0v19l0,0H139l0,0V345.9z"/>
			<path shape-rendering="auto" class="st6" d="M139,323.6L139,323.6h137.4l0,0v19l0,0H139l0,0V323.6z"/>
			<path shape-rendering="auto" class="st6" d="M139,301.4L139,301.4h143.6l0,0v19l0,0H139l0,0V301.4z"/>
			<path shape-rendering="auto" class="st6" d="M139,279.1L139,279.1h152.2l0,0v19l0,0H139l0,0V279.1z"/>
			<path shape-rendering="auto" class="st6" d="M139,256.9L139,256.9h160.7l0,0v19l0,0H139l0,0V256.9z"/>
			<path shape-rendering="auto" class="st6" d="M139,234.7L139,234.7h168.5l0,0v19l0,0H139l0,0V234.7z"/>
			<path shape-rendering="auto" class="st6" d="M139,212.4L139,212.4h174.7l0,0v19l0,0H139l0,0V212.4z"/>
			<path shape-rendering="auto" class="st6" d="M139,190.2L139,190.2h219l0,0v19l0,0H139l0,0V190.2z"/>
			<path shape-rendering="auto" class="st6" d="M139,167.9L139,167.9h250l0,0v19l0,0H139l0,0V167.9z"/>
			<path shape-rendering="auto" class="st6" d="M139,145.7L139,145.7h262.4l0,0v19l0,0H139l0,0V145.7z"/>
			<path shape-rendering="auto" class="st6" d="M139,123.4L139,123.4h275.6l0,0v19l0,0H139l0,0V123.4z"/>
			<path shape-rendering="auto" class="st6" d="M139,101.2L139,101.2h312.1l0,0v19l0,0H139l0,0V101.2z"/>
			<path shape-rendering="auto" class="st6" d="M139,79L139,79h329.2l0,0v19l0,0H139l0,0V79z"/>
			<path shape-rendering="auto" class="st6" d="M139,56.7L139,56.7h340.1l0,0v19l0,0H139l0,0V56.7z"/>
			<path shape-rendering="auto" class="st6" d="M139,34.5L139,34.5h343.2l0,0v19l0,0H139l0,0V34.5z"/>
		</g>
	</g>
	<g>
		<g>
			<line shape-rendering="auto" vector-effect="non-scaling-stroke" class="st8" x1="139" y1="15.1" x2="139" y2="498.4"/>
			<g>
				<text transform="matrix(1 0 0 1 75.3975 471.4869)" class="st2 st3 st9">Alabama</text>
			</g>
			<g>
				<text transform="matrix(1 0 0 1 54.2266 449.6917)" class="st2 st3 st9">New Mexico</text>
			</g>
			<g>
				<text transform="matrix(1 0 0 1 74.1875 425.8963)" class="st2 st3 st9">Colorado</text>
			</g>
			<g>
				<text transform="matrix(1 0 0 1 71.2891 404.101)" class="st2 st3 st9">New York</text>
			</g>
			<g>
				<text transform="matrix(1 0 0 1 31.3125 380.3057)" class="st2 st3 st9">New Hampshire</text>
			</g>
			<g>
				<text transform="matrix(1 0 0 1 65.0205 358.5104)" class="st2 st3 st9">Minnesota</text>
			</g>
			<g>
				<text transform="matrix(1 0 0 1 83.5938 336.7151)" class="st2 st3 st9">Nevada</text>
			</g>
			<g>
				<text transform="matrix(1 0 0 1 71.0566 314.9198)" class="st2 st3 st9">California</text>
			</g>
			<g>
				<text transform="matrix(1 0 0 1 67.584 293.1245)" class="st2 st3 st9">Oklahoma</text>
			</g>
			<g>
				<text transform="matrix(1 0 0 1 48.3818 270.3291)" class="st2 st3 st9">North Dakota</text>
			</g>
			<g>
				<text transform="matrix(1 0 0 1 84.7285 248.5338)" class="st2 st3 st9">Kansas</text>
			</g>
			<g>
				<text transform="matrix(1 0 0 1 71.3643 226.7385)" class="st2 st3 st9">Nebraska</text>
			</g>
			<g>
				<text transform="matrix(1 0 0 1 75.4385 204.9432)" class="st2 st3 st9">Montana</text>
			</g>
			<g>
				<text transform="matrix(1 0 0 1 77.2842 183.1479)" class="st2 st3 st9">Vermont</text>
			</g>
			<g>
				<text transform="matrix(1 0 0 1 95.8848 161.3526)" class="st2 st3 st9">Idaho</text>
			</g>
			<g>
				<text transform="matrix(1 0 0 1 100.9707 139.5573)" class="st2 st3 st9">Iowa</text>
			</g>
			<g>
				<text transform="matrix(1 0 0 1 92.5215 117.7619)" class="st2 st3 st9">Maine</text>
			</g>
			<g>
				<text transform="matrix(1 0 0 1 47.0762 95.9666)" class="st2 st3 st9">South Dakota</text>
			</g>
			<g>
				<text transform="matrix(1 0 0 1 56.6738 74.1713)" class="st2 st3 st9">Washington</text>
			</g>
			<g>
				<text transform="matrix(1 0 0 1 85.5557 52.376)" class="st2 st3 st9">Oregon</text>
			</g>
		</g>
	</g>
	<path shape-rendering="auto" class="st10" d="M250.8,390.4L250.8,390.4h431.7l0,0v19l0,0H250.8l0,0V390.4z"/>
	<g>
		<g>
			<path class="st8" d="M473.3,386.1c0.4-14.2,9-25.5,19.5-25.5"/>
			<g>
				<polygon class="st2" points="477.6,383 477,382.3 473.4,385.7 470.2,381.9 469.5,382.6 473.3,387.2 				"/>
			</g>
		</g>
	</g>
	<text transform="matrix(1 0 0 1 505.5208 327.0988)" class="st11"><tspan x="0" y="0" class="st2 st12 st4">New York targets</tspan><tspan x="3.8" y="19.2" class="st2 st12 st4">to source 70% of</tspan><tspan x="-8.8" y="38.4" class="st2 st12 st4">electricity from RE</tspan><tspan x="66.5" y="57.6" class="st2 st12 st4">by 2030</tspan></text>
</g>
<g id="ai2html-settings">
</g>
</svg>
