<?xml version="1.0" encoding="utf-8"?>
<!-- Generator: Adobe Illustrator 26.4.1, SVG Export Plug-In . SVG Version: 6.00 Build 0)  -->
<svg version="1.1" xmlns="http://www.w3.org/2000/svg" xmlns:xlink="http://www.w3.org/1999/xlink" x="0px" y="0px"
	 viewBox="0 0 800 599.4" style="enable-background:new 0 0 800 599.4;" xml:space="preserve">
<style type="text/css">
	.st0{fill:#C8C8C8;}
	.st1{fill:#0397CC;stroke:#000000;stroke-miterlimit:10;}
	.st2{fill:#464646;}
	.st3{font-family:'Roboto-Regular';}
	.st4{font-size:15px;}
	.st5{fill:#FFFFFF;}
	.st6{font-size:12px;}
	.st7{font-family:'Roboto-Bold';}
	.st8{font-size:18px;}
</style>
<g id="Layer_1">
	<rect id="path0" x="9.5" y="11" class="st0" width="549" height="372"/>
	<rect id="path1" x="9.5" y="385" class="st0" width="549" height="202"/>
	<rect id="path2" x="560.5" y="11" class="st0" width="230" height="429"/>
	<rect id="path3" x="560.5" y="442" class="st1" width="153" height="100"/>
	<rect id="path4" x="560.5" y="544" class="st0" width="153" height="43"/>
	<rect id="path5" x="715.5" y="442" class="st0" width="41" height="102"/>
	<rect id="path6" x="758.5" y="442" class="st0" width="32" height="102"/>
	<rect id="path7" x="715.5" y="546" class="st0" width="75" height="41"/>
	<text transform="matrix(1 0 0 1 11.7669 25.143)" class="st2 st3 st4">Natural gas</text>
	<text transform="matrix(1 0 0 1 562.272 25.34)" class="st2 st3 st4">Hydro</text>
	<text transform="matrix(1 0 0 1 11.8276 397.3042)" class="st2 st3 st4">Nuclear</text>
	<text transform="matrix(1 0 0 1 563.5799 454.9788)" class="st5 st3 st4">Wind</text>
	<text transform="matrix(1 0 0 1 561.7701 556.5134)" class="st2 st3 st4">Biomass</text>
	<text transform="matrix(1 0 0 1 716.8506 454.9784)" class="st2 st3 st4">Solar</text>
	<text transform="matrix(1 0 0 1 715.8658 559.0267)" class="st2 st3 st4">Oil</text>
	<text transform="matrix(1 0 0 1 758.9977 453.1761)" class="st2 st3 st6">Other</text>
	<text transform="matrix(1 0 0 1 11.1117 44.0686)" class="st2 st7 st8">45.6%</text>
	<text transform="matrix(1 0 0 1 561.9382 45.0951)" class="st2 st7 st8">22%</text>
	<text transform="matrix(1 0 0 1 11.1118 416.5541)" class="st2 st7 st8">24.9%</text>
	<text transform="matrix(1 0 0 1 562.9791 473.2148)" class="st5 st7 st8">3.5%</text>
	<text transform="matrix(1 0 0 1 561.2021 575.025)" class="st2 st7 st8">1.5%</text>
	<text transform="matrix(1 0 0 1 715.804 472.0352)" class="st2 st7 st8">1%</text>
	<text transform="matrix(1 0 0 1 716.3273 576.0245)" class="st2 st7 st8">0.7%</text>
	<text transform="matrix(1 0 0 1 757.8558 472.0349)" class="st2 st7 st4">0.8%</text>
</g>
<g id="ai2html-settings">
</g>
</svg>
