<svg id="Layer_1" data-name="Layer 1" xmlns="http://www.w3.org/2000/svg" viewBox="0 0 488.28 218.73"><defs><style>.cls-1,.cls-2,.cls-3{fill:none;}.cls-1{stroke:#ddd;}.cls-1,.cls-18,.cls-3{stroke-miterlimit:10;}.cls-3{stroke:#888;}.cls-4,.cls-5,.cls-8{isolation:isolate;}.cls-4{font-size:10px;}.cls-4,.cls-8{font-family:SourceSansPro-Regular, Source Sans Pro;}.cls-5{font-size:12px;font-family:SourceSansPro-Bold, Source Sans Pro;font-weight:700;}.cls-6{letter-spacing:-0.01em;}.cls-7{letter-spacing:0em;}.cls-8{font-size:11px;}.cls-9{letter-spacing:0em;}.cls-10{letter-spacing:-0.01em;}.cls-11{letter-spacing:-0.02em;}.cls-12{letter-spacing:-0.01em;}.cls-13{letter-spacing:-0.07em;}.cls-14{letter-spacing:-0.01em;}.cls-15{letter-spacing:-0.02em;}.cls-16{letter-spacing:-0.02em;}.cls-17{letter-spacing:-0.01em;}.cls-18{fill:#fcb065;stroke:#fcb065;}.cls-19{fill:#a3b18a;}</style></defs><path class="cls-1" d="M92.5,28.78h400v200H92.5Z" transform="translate(-19.03 -28.28)"/><path class="cls-2" d="M92.5,228.78Z" transform="translate(-19.03 -28.28)"/><line class="cls-1" x1="73.47" y1="200.5" x2="73.47" y2="0.5"/><line class="cls-1" x1="113.47" y1="200.5" x2="113.47" y2="0.5"/><line class="cls-1" x1="153.47" y1="200.5" x2="153.47" y2="0.5"/><line class="cls-1" x1="193.47" y1="200.5" x2="193.47" y2="0.5"/><line class="cls-1" x1="233.47" y1="200.5" x2="233.47" y2="0.5"/><line class="cls-1" x1="273.47" y1="200.5" x2="273.47" y2="0.5"/><line class="cls-1" x1="313.47" y1="200.5" x2="313.47" y2="0.5"/><line class="cls-1" x1="353.47" y1="200.5" x2="353.47" y2="0.5"/><line class="cls-1" x1="393.47" y1="200.5" x2="393.47" y2="0.5"/><line class="cls-1" x1="433.47" y1="200.5" x2="433.47" y2="0.5"/><line class="cls-1" x1="473.47" y1="200.5" x2="473.47" y2="0.5"/><path class="cls-2" d="M92.5,228.78Z" transform="translate(-19.03 -28.28)"/><line class="cls-3" x1="73.47" y1="200.5" x2="73.47" y2="205.5"/><line class="cls-3" x1="113.47" y1="200.5" x2="113.47" y2="205.5"/><line class="cls-3" x1="153.47" y1="200.5" x2="153.47" y2="205.5"/><line class="cls-3" x1="193.47" y1="200.5" x2="193.47" y2="205.5"/><line class="cls-3" x1="233.47" y1="200.5" x2="233.47" y2="205.5"/><line class="cls-3" x1="273.47" y1="200.5" x2="273.47" y2="205.5"/><line class="cls-3" x1="313.47" y1="200.5" x2="313.47" y2="205.5"/><line class="cls-3" x1="353.47" y1="200.5" x2="353.47" y2="205.5"/><line class="cls-3" x1="393.47" y1="200.5" x2="393.47" y2="205.5"/><line class="cls-3" x1="433.47" y1="200.5" x2="433.47" y2="205.5"/><line class="cls-3" x1="473.47" y1="200.5" x2="473.47" y2="205.5"/><text class="cls-4" transform="translate(73.47 215.5)">0</text><text class="cls-4" transform="translate(110.69 215.5)">5</text><text class="cls-4" transform="translate(147.91 215.5)">10</text><text class="cls-4" transform="translate(187.91 215.5)">15</text><text class="cls-4" transform="translate(227.91 215.5)">20</text><text class="cls-4" transform="translate(267.91 215.5)">25</text><text class="cls-4" transform="translate(307.91 215.5)">30</text><text class="cls-4" transform="translate(347.91 215.5)">35</text><text class="cls-4" transform="translate(387.91 215.5)">40</text><text class="cls-4" transform="translate(427.91 215.5)">45</text><text class="cls-4" transform="translate(462.35 215.5)">$50bn</text><path class="cls-2" d="M92.5,28.78Z" transform="translate(-19.03 -28.28)"/><line class="cls-3" x1="73.47" y1="10.5" x2="68.47" y2="10.5"/><line class="cls-3" x1="73.47" y1="30.5" x2="68.47" y2="30.5"/><line class="cls-3" x1="73.47" y1="50.5" x2="68.47" y2="50.5"/><line class="cls-3" x1="73.47" y1="70.5" x2="68.47" y2="70.5"/><line class="cls-3" x1="73.47" y1="90.5" x2="68.47" y2="90.5"/><line class="cls-3" x1="73.47" y1="110.5" x2="68.47" y2="110.5"/><line class="cls-3" x1="73.47" y1="130.5" x2="68.47" y2="130.5"/><line class="cls-3" x1="73.47" y1="150.5" x2="68.47" y2="150.5"/><line class="cls-3" x1="73.47" y1="170.5" x2="68.47" y2="170.5"/><line class="cls-3" x1="73.47" y1="190.5" x2="68.47" y2="190.5"/><text class="cls-5" transform="translate(14.23 14)">Cali<tspan class="cls-6" x="20.11" y="0">f</tspan><tspan class="cls-7" x="24.08" y="0">ornia</tspan></text><text class="cls-8" transform="translate(43.35 34)">I<tspan class="cls-9" x="2.84" y="0">o</tspan><tspan class="cls-10" x="8.76" y="0">w</tspan><tspan x="16.54" y="0">a</tspan></text><text class="cls-8" transform="translate(21.67 54)">Neb<tspan class="cls-11" x="18.62" y="0">r</tspan><tspan x="22.16" y="0">as</tspan><tspan class="cls-12" x="32.41" y="0">k</tspan><tspan x="37.74" y="0">a</tspan></text><text class="cls-8" transform="translate(38.35 74)"><tspan class="cls-13">T</tspan><tspan class="cls-14" x="5.11" y="0">e</tspan><tspan class="cls-10" x="10.49" y="0">x</tspan><tspan x="15.29" y="0">as</tspan></text><text class="cls-8" transform="translate(31.12 94)">Kansas</text><text class="cls-8" transform="translate(18.33 114)">Minneso<tspan class="cls-15" x="38.71" y="0">t</tspan><tspan x="42.23" y="0">a</tspan></text><text class="cls-8" transform="translate(36.68 134)">Illinois</text><text class="cls-8" transform="translate(18.91 154)">Wis<tspan class="cls-16" x="15.91" y="0">c</tspan><tspan x="20.69" y="0">onsin</tspan></text><text class="cls-8" transform="translate(31.66 174)">Indiana</text><text class="cls-8" transform="translate(0 194)">North Ca<tspan class="cls-17" x="40.62" y="0">r</tspan><tspan x="44.33" y="0">olina</tspan></text><line class="cls-3" x1="73.47" y1="0.5" x2="73.47" y2="200.5"/><path class="cls-18" d="M92,29.28H484.78v18H92Z" transform="translate(-19.03 -28.28)"/><path class="cls-19" d="M92,49.28H303.32v18H92Z" transform="translate(-19.03 -28.28)"/><path class="cls-19" d="M92,69.28H262v18H92Z" transform="translate(-19.03 -28.28)"/><path class="cls-19" d="M92,89.28H253.43v18H92Z" transform="translate(-19.03 -28.28)"/><path class="cls-19" d="M92,109.28H232.8v18H92Z" transform="translate(-19.03 -28.28)"/><path class="cls-19" d="M92,129.28H225.18v18H92Z" transform="translate(-19.03 -28.28)"/><path class="cls-19" d="M92,149.28H221v18H92Z" transform="translate(-19.03 -28.28)"/><path class="cls-19" d="M92,169.28h91v18H92Z" transform="translate(-19.03 -28.28)"/><path class="cls-19" d="M92,189.28h86.11v18H92Z" transform="translate(-19.03 -28.28)"/><path class="cls-19" d="M92,209.28h80.76v18H92Z" transform="translate(-19.03 -28.28)"/><path class="cls-2" d="M292,11.28Z" transform="translate(-19.03 -28.28)"/></svg>