<?xml version="1.0" encoding="utf-8"?>
<!-- Generator: Adobe Illustrator 25.0.0, SVG Export Plug-In . SVG Version: 6.00 Build 0)  -->
<svg version="1.2" baseProfile="tiny" id="Layer_1" xmlns="http://www.w3.org/2000/svg" xmlns:xlink="http://www.w3.org/1999/xlink"
	 x="0px" y="0px" viewBox="0 0 586.533 361" overflow="visible" xml:space="preserve">
<g>
	<g transform="translate(0.5,0.5)">
		<path fill="none" d="M86.949,10L86.949,10L86.949,10L86.949,10z"/>
		<g>
			<g>
				<line fill="none" stroke="#DDDDDD" stroke-miterlimit="10" x1="86.949" y1="310" x2="566.949" y2="310"/>
				<line fill="none" stroke="#DDDDDD" stroke-miterlimit="10" x1="86.949" y1="277" x2="566.949" y2="277"/>
				<line fill="none" stroke="#DDDDDD" stroke-miterlimit="10" x1="86.949" y1="243" x2="566.949" y2="243"/>
				<line fill="none" stroke="#DDDDDD" stroke-miterlimit="10" x1="86.949" y1="210" x2="566.949" y2="210"/>
				<line fill="none" stroke="#DDDDDD" stroke-miterlimit="10" x1="86.949" y1="177" x2="566.949" y2="177"/>
				<line fill="none" stroke="#DDDDDD" stroke-miterlimit="10" x1="86.949" y1="143" x2="566.949" y2="143"/>
				<line fill="none" stroke="#DDDDDD" stroke-miterlimit="10" x1="86.949" y1="110" x2="566.949" y2="110"/>
				<line fill="none" stroke="#DDDDDD" stroke-miterlimit="10" x1="86.949" y1="77" x2="566.949" y2="77"/>
				<line fill="none" stroke="#DDDDDD" stroke-miterlimit="10" x1="86.949" y1="43" x2="566.949" y2="43"/>
				<line fill="none" stroke="#DDDDDD" stroke-miterlimit="10" x1="86.949" y1="10" x2="566.949" y2="10"/>
			</g>
		</g>
		<path display="none" fill="none" stroke="#DDDDDD" stroke-miterlimit="10" d="M86.949,10"/>
	</g>
</g>
<path fill="none" d="M87.449,310.5L87.449,310.5L87.449,310.5L87.449,310.5z"/>
<g>
	<line fill="none" stroke="#888888" stroke-miterlimit="10" x1="87.949" y1="310.5" x2="87.949" y2="315.5"/>
	<line fill="none" stroke="#888888" stroke-miterlimit="10" x1="207.949" y1="310.5" x2="207.949" y2="315.5"/>
	<line fill="none" stroke="#888888" stroke-miterlimit="10" x1="327.949" y1="310.5" x2="327.949" y2="315.5"/>
	<line fill="none" stroke="#888888" stroke-miterlimit="10" x1="447.949" y1="310.5" x2="447.949" y2="315.5"/>
	<line fill="none" stroke="#888888" stroke-miterlimit="10" x1="567.949" y1="310.5" x2="567.949" y2="315.5"/>
</g>
<g>
	<line fill="none" stroke="#888888" stroke-miterlimit="10" x1="87.449" y1="310.5" x2="567.949" y2="310.5"/>
</g>
<path display="none" d="M27.949,310.5"/>
<path fill="none" d="M87.449,10.5L87.449,10.5L87.449,10.5L87.449,10.5z"/>
<g>
	<line fill="none" stroke="#888888" stroke-miterlimit="10" x1="87.449" y1="310.5" x2="82.449" y2="310.5"/>
	<line fill="none" stroke="#888888" stroke-miterlimit="10" x1="87.449" y1="277.5" x2="82.449" y2="277.5"/>
	<line fill="none" stroke="#888888" stroke-miterlimit="10" x1="87.449" y1="243.5" x2="82.449" y2="243.5"/>
	<line fill="none" stroke="#888888" stroke-miterlimit="10" x1="87.449" y1="210.5" x2="82.449" y2="210.5"/>
	<line fill="none" stroke="#888888" stroke-miterlimit="10" x1="87.449" y1="177.5" x2="82.449" y2="177.5"/>
	<line fill="none" stroke="#888888" stroke-miterlimit="10" x1="87.449" y1="143.5" x2="82.449" y2="143.5"/>
	<line fill="none" stroke="#888888" stroke-miterlimit="10" x1="87.449" y1="110.5" x2="82.449" y2="110.5"/>
	<line fill="none" stroke="#888888" stroke-miterlimit="10" x1="87.449" y1="77.5" x2="82.449" y2="77.5"/>
	<line fill="none" stroke="#888888" stroke-miterlimit="10" x1="87.449" y1="43.5" x2="82.449" y2="43.5"/>
	<line fill="none" stroke="#888888" stroke-miterlimit="10" x1="87.449" y1="10.5" x2="82.449" y2="10.5"/>
</g>
<text transform="matrix(1 0 0 1 72.4948 311.0001)" font-family="'SourceSansPro-Regular'" font-size="12px">0</text>
<text transform="matrix(1 0 0 1 63.5424 283.1667)" font-family="'SourceSansPro-Regular'" font-size="12px">0.5</text>
<text transform="matrix(1 0 0 1 72.4945 249.8334)" font-family="'SourceSansPro-Regular'" font-size="12px">1</text>
<text transform="matrix(1 0 0 1 63.5424 216.5001)" font-family="'SourceSansPro-Regular'" font-size="12px">1.5</text>
<text transform="matrix(1 0 0 1 72.4945 183.1668)" font-family="'SourceSansPro-Regular'" font-size="12px">2</text>
<text transform="matrix(1 0 0 1 63.5424 149.8334)" font-family="'SourceSansPro-Regular'" font-size="12px">2.5</text>
<text transform="matrix(1 0 0 1 72.4945 116.5001)" font-family="'SourceSansPro-Regular'" font-size="12px">3</text>
<text transform="matrix(1 0 0 1 63.5424 83.1667)" font-family="'SourceSansPro-Regular'" font-size="12px">3.5</text>
<text transform="matrix(1 0 0 1 72.4945 49.8334)" font-family="'SourceSansPro-Regular'" font-size="12px">4</text>
<text transform="matrix(1 0 0 1 9.8639 16.5001)" font-family="'SourceSansPro-Bold'" font-size="12px">$4.5 BILLION </text>
<g>
	<line fill="none" stroke="#888888" stroke-miterlimit="10" x1="87.449" y1="310.5" x2="87.449" y2="10.5"/>
</g>
<path display="none" d="M27.949,10.5"/>
<g>
	<g>
		<path fill="#FCB065" d="M87.449,106.566l120-45.578l120-28.286l120,2.195l120,1.616v83.698l-120,19.832l-120-28.795l-120,31.08
			l-120,44.309V106.566z"/>
	</g>
</g>
<path display="none" fill="#4C78A8" d="M27.449,10"/>
<g>
	<g>
		<path fill="#F7C99F" d="M87.449,186.636l120-44.309l120-31.08l120,28.795l120-19.832v69.757l-120,14.266l-120-19.195l-120,20.704
			l-120,28.589V186.636z"/>
	</g>
</g>
<path display="none" fill="#F58518" d="M27.449,10"/>
<g>
	<g>
		<path fill="#F2E2D7" d="M87.449,259.94l120-24.783l120-22.398l120,18.35l120-10.17v50.798l-120,3.415l-120-4.916l-120-0.609
			l-120,7.373V259.94z"/>
	</g>
</g>
<path display="none" fill="#72B7B2" d="M27.449,10"/>
<g>
	<g>
		<path fill="#DAE5EA" d="M87.449,276.999l120-7.373l120,0.609l120,4.916l120-3.415V310h-120h-120h-120h-120V276.999z"/>
	</g>
</g>
<path display="none" fill="#54A24B" d="M27.449,10"/>
<g>
	<g>
		<path fill="#C7E7F9" d="M87.449,234.331l120-28.589l120-20.704l120,19.195l120-14.266v30.971l-120,10.17l-120-18.35l-120,22.398
			l-120,24.783V234.331z"/>
	</g>
</g>
<path display="none" fill="#E45756" d="M27.449,10"/>
<path fill="none" d="M645.449,10h64v79h-64V10z"/>
<path fill="none" d="M645.449,26L645.449,26L645.449,26L645.449,26z"/>
<path fill="none" d="M515.402,70.59h63.11v11h-63.11V70.59z"/>
<g>
	<text transform="matrix(1 0 0 1 512.4966 79.5898)" font-family="'SourceSansPro-Regular'" font-size="12px">almonds</text>
</g>
<path display="none" d="M515.402,70.59"/>
<path fill="none" d="M515.402,160.5h63.11v11h-63.11V160.5z"/>
<g>
	<text transform="matrix(1 0 0 1 522.7092 169.5)" font-family="'SourceSansPro-Regular'" font-size="12px">g</text>
	<text transform="matrix(1 0 0 1 528.7571 169.5)" font-family="'SourceSansPro-Regular'" font-size="12px">r</text>
	<text transform="matrix(1 0 0 1 532.6213 169.5)" font-family="'SourceSansPro-Regular'" font-size="12px">a</text>
	<text transform="matrix(1 0 0 1 538.7649 169.5)" font-family="'SourceSansPro-Regular'" font-size="12px">p</text>
	<text transform="matrix(1 0 0 1 545.425 169.5)" font-family="'SourceSansPro-Regular'" font-size="12px">e</text>
	<text transform="matrix(1 0 0 1 551.3767 169.5)" font-family="'SourceSansPro-Regular'" font-size="12px">s</text>
</g>
<path display="none" d="M515.402,160.5"/>
<path fill="none" d="M515.402,203.344h63.11v11h-63.11V203.344z"/>
<g>
	<text transform="matrix(1 0 0 1 534.5051 212.3439)" font-family="'SourceSansPro-Regular'" font-size="12px">milk</text>
</g>
<path display="none" d="M515.402,203.344"/>
<path fill="none" d="M515.402,249.833h63.11v11h-63.11V249.833z"/>
<g>
	<text transform="matrix(1 0 0 1 505.2976 254.833)" font-family="'SourceSansPro-Regular'" font-size="12px">p</text>
	<text transform="matrix(1 0 0 1 511.9573 254.833)" font-family="'SourceSansPro-Regular'" font-size="12px">i</text>
	<text transform="matrix(1 0 0 1 514.9094 254.833)" font-family="'SourceSansPro-Regular'" font-size="12px">s</text>
	<text transform="matrix(1 0 0 1 519.9373 254.833)" font-family="'SourceSansPro-Regular'" font-size="12px">t</text>
	<text transform="matrix(1 0 0 1 523.7776 254.833)" font-family="'SourceSansPro-Regular'" font-size="12px">a</text>
	<text transform="matrix(1 0 0 1 529.9211 254.833)" font-family="'SourceSansPro-Regular'" font-size="12px">c</text>
	<text transform="matrix(1 0 0 1 535.3933 254.833)" font-family="'SourceSansPro-Regular'" font-size="12px">h</text>
	<text transform="matrix(1 0 0 1 541.9211 254.833)" font-family="'SourceSansPro-Regular'" font-size="12px">i</text>
	<text transform="matrix(1 0 0 1 544.8728 254.833)" font-family="'SourceSansPro-Regular'" font-size="12px">o</text>
	<text transform="matrix(1 0 0 1 551.3767 254.833)" font-family="'SourceSansPro-Regular'" font-size="12px">s</text>
</g>
<path display="none" d="M515.402,249.833"/>
<path fill="none" d="M515.402,284.313h63.11v11h-63.11V284.313z"/>
<g>
	<text transform="matrix(1 0 0 1 518.2169 295.313)" font-family="'SourceSansPro-Regular'" font-size="12px">p</text>
	<text transform="matrix(1 0 0 1 524.8766 295.313)" font-family="'SourceSansPro-Regular'" font-size="12px">o</text>
	<text transform="matrix(1 0 0 1 531.3805 295.313)" font-family="'SourceSansPro-Regular'" font-size="12px">u</text>
	<text transform="matrix(1 0 0 1 537.9088 295.313)" font-family="'SourceSansPro-Regular'" font-size="12px">l</text>
	<text transform="matrix(1 0 0 1 540.9684 295.313)" font-family="'SourceSansPro-Regular'" font-size="12px">t</text>
	<text transform="matrix(1 0 0 1 545.0245 295.313)" font-family="'SourceSansPro-Regular'" font-size="12px">r</text>
	<text transform="matrix(1 0 0 1 549.4161 295.313)" font-family="'SourceSansPro-Regular'" font-size="12px">y</text>
</g>
<path display="none" d="M515.402,284.313"/>
<path display="none" d="M645.449,26"/>
<path display="none" d="M645.449,10"/>
<path display="none" d="M27.449,10"/>
<text transform="matrix(1 0 0 1 77.944 330.2761)" font-family="'SourceSansPro-Regular'" font-size="12px">2016</text>
<text transform="matrix(1 0 0 1 197.4634 330.2766)" font-family="'SourceSansPro-Regular'" font-size="12px">2017</text>
<text transform="matrix(1 0 0 1 316.9827 330.2762)" font-family="'SourceSansPro-Regular'" font-size="12px">2018</text>
<text transform="matrix(1 0 0 1 436.5021 330.2762)" font-family="'SourceSansPro-Regular'" font-size="12px">2019</text>
<text transform="matrix(1 0 0 1 556.0215 330.2762)" font-family="'SourceSansPro-Regular'" font-size="12px">2020</text>
<text transform="matrix(1 0 0 1 47.9268 29.2163)" font-family="'SourceSansPro-Bold'" font-size="12px">V</text>
<text transform="matrix(1 0 0 1 54.1671 29.2163)" font-family="'SourceSansPro-Bold'" font-size="12px">a</text>
<text transform="matrix(1 0 0 1 60.5748 29.2163)" font-family="'SourceSansPro-Bold'" font-size="12px">l</text>
<text transform="matrix(1 0 0 1 64.0069 29.2163)" font-family="'SourceSansPro-Bold'" font-size="12px">u</text>
<text transform="matrix(1 0 0 1 70.8228 29.2163)" font-family="'SourceSansPro-Bold'" font-size="12px">e</text>
</svg>
