<svg id="Layer_1" data-name="Layer 1" xmlns="http://www.w3.org/2000/svg" viewBox="0 0 439.94 300.5"><defs><style>.cls-1,.cls-2,.cls-3{fill:none;}.cls-2{stroke:#ddd;}.cls-2,.cls-3{stroke-miterlimit:10;}.cls-3{stroke:#888;}.cls-4,.cls-5,.cls-6,.cls-9{isolation:isolate;}.cls-4,.cls-5{font-size:10px;}.cls-4,.cls-5,.cls-9{font-family:SourceSansPro-Regular, Source Sans Pro;}.cls-5{opacity:0;}.cls-6{font-size:11px;font-family:SourceSansPro-Bold, Source Sans Pro;font-weight:700;}.cls-7{letter-spacing:-0.02em;}.cls-8{fill:#94afbf;}.cls-9{font-size:12px;}.cls-10{letter-spacing:-0.07em;}.cls-11{letter-spacing:-0.02em;}.cls-12{letter-spacing:-0.01em;}.cls-13{letter-spacing:-0.01em;}.cls-14{letter-spacing:-0.02em;}.cls-15{letter-spacing:0em;}.cls-16{letter-spacing:-0.02em;}.cls-17{letter-spacing:0em;}.cls-18{letter-spacing:-0.01em;}.cls-19{letter-spacing:-0.01em;}.cls-20{letter-spacing:-0.01em;}.cls-21{fill:#a3b18a;}.cls-22{letter-spacing:0em;}.cls-23{letter-spacing:-0.02em;}.cls-24{letter-spacing:0em;}</style></defs><path class="cls-1" d="M51,23Z" transform="translate(-17.43 -7.86)"/><path class="cls-2" d="M51.5,23.5h400v80H51.5Z" transform="translate(-17.43 -7.86)"/><path class="cls-1" d="M51.5,103.5Z" transform="translate(-17.43 -7.86)"/><line class="cls-2" x1="34.07" y1="95.64" x2="34.07" y2="15.64"/><line class="cls-2" x1="63.07" y1="95.64" x2="63.07" y2="15.64"/><line class="cls-2" x1="91.07" y1="95.64" x2="91.07" y2="15.64"/><line class="cls-2" x1="120.07" y1="95.64" x2="120.07" y2="15.64"/><line class="cls-2" x1="148.07" y1="95.64" x2="148.07" y2="15.64"/><line class="cls-2" x1="177.07" y1="95.64" x2="177.07" y2="15.64"/><line class="cls-2" x1="205.07" y1="95.64" x2="205.07" y2="15.64"/><line class="cls-2" x1="234.07" y1="95.64" x2="234.07" y2="15.64"/><line class="cls-2" x1="263.07" y1="95.64" x2="263.07" y2="15.64"/><line class="cls-2" x1="291.07" y1="95.64" x2="291.07" y2="15.64"/><line class="cls-2" x1="320.07" y1="95.64" x2="320.07" y2="15.64"/><line class="cls-2" x1="348.07" y1="95.64" x2="348.07" y2="15.64"/><line class="cls-2" x1="377.07" y1="95.64" x2="377.07" y2="15.64"/><line class="cls-2" x1="405.07" y1="95.64" x2="405.07" y2="15.64"/><line class="cls-2" x1="434.07" y1="95.64" x2="434.07" y2="15.64"/><path class="cls-1" d="M51.5,103.5Z" transform="translate(-17.43 -7.86)"/><line class="cls-3" x1="34.07" y1="95.64" x2="34.07" y2="100.64"/><line class="cls-3" x1="63.07" y1="95.64" x2="63.07" y2="100.64"/><line class="cls-3" x1="91.07" y1="95.64" x2="91.07" y2="100.64"/><line class="cls-3" x1="120.07" y1="95.64" x2="120.07" y2="100.64"/><line class="cls-3" x1="148.07" y1="95.64" x2="148.07" y2="100.64"/><line class="cls-3" x1="177.07" y1="95.64" x2="177.07" y2="100.64"/><line class="cls-3" x1="205.07" y1="95.64" x2="205.07" y2="100.64"/><line class="cls-3" x1="234.07" y1="95.64" x2="234.07" y2="100.64"/><line class="cls-3" x1="263.07" y1="95.64" x2="263.07" y2="100.64"/><line class="cls-3" x1="291.07" y1="95.64" x2="291.07" y2="100.64"/><line class="cls-3" x1="320.07" y1="95.64" x2="320.07" y2="100.64"/><line class="cls-3" x1="348.07" y1="95.64" x2="348.07" y2="100.64"/><line class="cls-3" x1="377.07" y1="95.64" x2="377.07" y2="100.64"/><line class="cls-3" x1="405.07" y1="95.64" x2="405.07" y2="100.64"/><line class="cls-3" x1="434.07" y1="95.64" x2="434.07" y2="100.64"/><text class="cls-4" transform="translate(34.07 110.64)">0</text><text class="cls-5" transform="translate(54.3 110.64)">200</text><text class="cls-4" transform="translate(82.87 110.64)">400</text><text class="cls-5" transform="translate(111.44 110.64)">600</text><text class="cls-4" transform="translate(140.01 110.64)">800</text><text class="cls-5" transform="translate(164.41 110.64)">1,000</text><text class="cls-4" transform="translate(192.98 110.64)">1,200</text><text class="cls-5" transform="translate(221.56 110.64)">1,400</text><text class="cls-4" transform="translate(250.13 110.64)">1,600</text><text class="cls-5" transform="translate(278.7 110.64)">1,800</text><text class="cls-4" transform="translate(307.27 110.64)">2,000</text><text class="cls-5" transform="translate(335.84 110.64)">2,200</text><text class="cls-4" transform="translate(364.41 110.64)">2,400</text><text class="cls-5" transform="translate(392.98 110.64)">2,600</text><text class="cls-4" transform="translate(409.04 110.64)">2,800</text><text class="cls-6" transform="translate(171.7 125.64)">million <tspan class="cls-7" x="36.48" y="0">g</tspan><tspan x="42.14" y="0">allons per day</tspan></text><path class="cls-1" d="M51.5,23.5Z" transform="translate(-17.43 -7.86)"/><line class="cls-3" x1="34.07" y1="25.64" x2="29.07" y2="25.64"/><line class="cls-3" x1="34.07" y1="45.64" x2="29.07" y2="45.64"/><line class="cls-3" x1="34.07" y1="65.64" x2="29.07" y2="65.64"/><line class="cls-3" x1="34.07" y1="85.64" x2="29.07" y2="85.64"/><text class="cls-4" transform="translate(4.82 28.14)">2000</text><text class="cls-4" transform="translate(4.82 48.14)">2005</text><text class="cls-4" transform="translate(4.82 68.14)">2010</text><text class="cls-4" transform="translate(4.82 88.14)">2015</text><line class="cls-3" x1="34.07" y1="15.64" x2="34.07" y2="95.64"/><path class="cls-8" d="M51,24H226.37V42H51Z" transform="translate(-17.43 -7.86)"/><path class="cls-8" d="M51,44H436.53V62H51Z" transform="translate(-17.43 -7.86)"/><path class="cls-8" d="M51,64H407.11V82H51Z" transform="translate(-17.43 -7.86)"/><path class="cls-8" d="M51,84H282v18H51Z" transform="translate(-17.43 -7.86)"/><path class="cls-1" d="M251,6Z" transform="translate(-17.43 -7.86)"/><text class="cls-9" transform="translate(5.13 9.96)"><tspan class="cls-10">T</tspan><tspan x="5.58" y="0">o</tspan><tspan class="cls-11" x="12.08" y="0">t</tspan><tspan x="15.92" y="0">al f</tspan><tspan class="cls-12" x="31.06" y="0">r</tspan><tspan x="35.1" y="0">esh </tspan><tspan class="cls-13" x="55.03" y="0">w</tspan><tspan x="63.53" y="0">a</tspan><tspan class="cls-13" x="69.67" y="0">t</tspan><tspan x="73.61" y="0">er used </tspan><tspan class="cls-13" x="112.74" y="0">f</tspan><tspan x="116.12" y="0">or irri</tspan><tspan class="cls-14" x="143.44" y="0">g</tspan><tspan class="cls-15" x="149.3" y="0">ation in </tspan><tspan class="cls-16" x="189.88" y="0">F</tspan><tspan class="cls-12" x="195.51" y="0">r</tspan><tspan x="199.56" y="0">esno per </tspan><tspan class="cls-17" x="245.23" y="0">y</tspan><tspan class="cls-18" x="250.78" y="0">e</tspan><tspan x="256.57" y="0">ar</tspan></text><path class="cls-2" d="M46.68,191.75h400v80h-400Z" transform="translate(-17.43 -7.86)"/><path class="cls-1" d="M46.68,271.75Z" transform="translate(-17.43 -7.86)"/><line class="cls-2" x1="29.25" y1="263.89" x2="29.25" y2="183.89"/><line class="cls-2" x1="86.25" y1="263.89" x2="86.25" y2="183.89"/><line class="cls-2" x1="143.25" y1="263.89" x2="143.25" y2="183.89"/><line class="cls-2" x1="200.25" y1="263.89" x2="200.25" y2="183.89"/><line class="cls-2" x1="258.25" y1="263.89" x2="258.25" y2="183.89"/><line class="cls-2" x1="315.25" y1="263.89" x2="315.25" y2="183.89"/><line class="cls-2" x1="372.25" y1="263.89" x2="372.25" y2="183.89"/><line class="cls-2" x1="429.25" y1="263.89" x2="429.25" y2="183.89"/><path class="cls-1" d="M46.68,271.75Z" transform="translate(-17.43 -7.86)"/><line class="cls-3" x1="29.25" y1="263.89" x2="29.25" y2="268.89"/><line class="cls-3" x1="86.25" y1="263.89" x2="86.25" y2="268.89"/><line class="cls-3" x1="143.25" y1="263.89" x2="143.25" y2="268.89"/><line class="cls-3" x1="200.25" y1="263.89" x2="200.25" y2="268.89"/><line class="cls-3" x1="258.25" y1="263.89" x2="258.25" y2="268.89"/><line class="cls-3" x1="315.25" y1="263.89" x2="315.25" y2="268.89"/><line class="cls-3" x1="372.25" y1="263.89" x2="372.25" y2="268.89"/><line class="cls-3" x1="429.25" y1="263.89" x2="429.25" y2="268.89"/><text class="cls-4" transform="translate(27.25 278.89)">0</text><text class="cls-4" transform="translate(78.05 278.89)">500k</text><text class="cls-4" transform="translate(136.02 278.89)">1m</text><text class="cls-4" transform="translate(189.16 278.89)">1.5m</text><text class="cls-4" transform="translate(252.31 278.89)">2m</text><text class="cls-4" transform="translate(304.45 278.89)">2.5m</text><text class="cls-4" transform="translate(366.59 278.89)">3m</text><text class="cls-4" transform="translate(419.22 278.89)">3.5m</text><text class="cls-6" transform="translate(165.37 296.28)">Ac<tspan class="cls-19" x="11.42" y="0">r</tspan><tspan x="15.69" y="0">es </tspan><tspan class="cls-20" x="28.54" y="0">o</tspan><tspan x="34.59" y="0">f land irri</tspan><tspan class="cls-7" x="79.36" y="0">g</tspan><tspan x="85.03" y="0">a</tspan><tspan class="cls-19" x="90.9" y="0">t</tspan><tspan x="95.01" y="0">ed</tspan></text><path class="cls-1" d="M46.68,191.75Z" transform="translate(-17.43 -7.86)"/><line class="cls-3" x1="29.25" y1="193.89" x2="24.25" y2="193.89"/><line class="cls-3" x1="29.25" y1="213.89" x2="24.25" y2="213.89"/><line class="cls-3" x1="29.25" y1="233.89" x2="24.25" y2="233.89"/><line class="cls-3" x1="29.25" y1="253.89" x2="24.25" y2="253.89"/><text class="cls-4" transform="translate(0 196.39)">2000</text><text class="cls-4" transform="translate(0 216.39)">2005</text><text class="cls-4" transform="translate(0 236.39)">2010</text><text class="cls-4" transform="translate(0 256.39)">2015</text><line class="cls-3" x1="29.25" y1="183.89" x2="29.25" y2="263.89"/><path class="cls-21" d="M46.18,192.25H445v18H46.18Z" transform="translate(-17.43 -7.86)"/><path class="cls-21" d="M46.18,212.25H177.34v18H46.18Z" transform="translate(-17.43 -7.86)"/><path class="cls-21" d="M46.18,232.25h125v18h-125Z" transform="translate(-17.43 -7.86)"/><path class="cls-21" d="M46.18,252.25h127.6v18H46.18Z" transform="translate(-17.43 -7.86)"/><path class="cls-1" d="M246.18,174.25Z" transform="translate(-17.43 -7.86)"/><text class="cls-9" transform="translate(0.31 178.21)">Si<tspan class="cls-13" x="9.3" y="0">z</tspan><tspan x="14.28" y="0">e of irri</tspan><tspan class="cls-14" x="49.32" y="0">g</tspan><tspan class="cls-15" x="55.17" y="0">a</tspan><tspan class="cls-13" x="61.32" y="0">t</tspan><tspan class="cls-22" x="65.25" y="0">ed </tspan><tspan class="cls-16" x="80.29" y="0">f</tspan><tspan x="83.55" y="0">arm land in </tspan><tspan class="cls-23" x="143.03" y="0">F</tspan><tspan class="cls-13" x="148.65" y="0">r</tspan><tspan class="cls-22" x="152.7" y="0">esno per </tspan><tspan class="cls-24" x="198.37" y="0">y</tspan><tspan class="cls-18" x="203.92" y="0">e</tspan><tspan class="cls-15" x="209.71" y="0">ar </tspan></text></svg>