<svg xmlns="http://www.w3.org/2000/svg" viewBox="0 0 620.22 357.58"><defs><style>.cls-1{fill:#ccc;opacity:0.5;}.cls-2,.cls-6,.cls-7{fill:none;}.cls-3,.cls-4,.cls-8{isolation:isolate;}.cls-3{font-size:10px;}.cls-3,.cls-4{font-family:SourceSansPro-Regular, Source Sans Pro;}.cls-4{font-size:11px;}.cls-5{letter-spacing:-0.02em;}.cls-6{stroke:#94afbf;}.cls-6,.cls-7{stroke-miterlimit:10;stroke-width:2px;}.cls-7{stroke:#fcb065;}.cls-8{font-size:13px;font-family:SourceSansPro-Bold, Source Sans Pro;font-weight:700;}.cls-9{letter-spacing:-0.01em;}.cls-10{letter-spacing:0em;}.cls-11{letter-spacing:-0.02em;}.cls-12{letter-spacing:-0.01em;}.cls-13{letter-spacing:-0.08em;}.cls-14{letter-spacing:-0.01em;}.cls-15{letter-spacing:-0.03em;}</style></defs><g id="Layer_2" data-name="Layer 2"><path class="cls-1" d="M55.4,181.4l22.7,86,22.7-76.8,22.7,46.1,22-182.45,23.24,155.51,23,65.34,22.7-65.7,22.7,28.3,22.7-46.3L282.5,167l22.7,73.2,22.7,18.1,22.7-1.5,22.7-15.5,22.7-7.2,22.7-59.5L441.4,265l22.7-89.3,22.7,25.2,22.7,57.5h22.7v51.4l-22.7,41.9-22.7-57.5L464.1,269l-22.7,89.3-22.7-90.4L396,327.4l-22.7,7.2-22.7,15.5-22.7,1.5-22.7-18.1-22.7-73.2-22.7,24.4L237.1,331l-22.7-28.3-22.7,65.7L169,304.9,146.2,151.8,123.5,330l-22.7-46.1L78.1,360.7l-22.7-86Z" transform="translate(-10.9 -51.19)"/></g><g id="Layer_1" data-name="Layer 1"><path class="cls-2" d="M44.5,41.5Z" transform="translate(-10.9 -51.19)"/><path class="cls-2" d="M44.5,391.5Z" transform="translate(-10.9 -51.19)"/><text class="cls-3" transform="translate(32.95 353.28) rotate(0.21)">2000</text><text class="cls-3" transform="translate(80.4 353.28) rotate(0.21)">2002</text><text class="cls-3" transform="translate(125.86 353.28) rotate(0.21)">2004</text><text class="cls-3" transform="translate(171.31 352.28) rotate(0.21)">2006</text><text class="cls-3" transform="translate(216.76 352.28) rotate(0.21)">2008</text><text class="cls-3" transform="translate(262.22 352.28) rotate(0.21)">2010</text><text class="cls-3" transform="translate(307.67 353.28) rotate(0.21)">2012</text><text class="cls-3" transform="translate(353.13 353.28) rotate(0.21)">2014</text><text class="cls-3" transform="translate(398.58 354.28) rotate(0.21)">2016</text><text class="cls-3" transform="translate(444.04 354.28) rotate(0.21)">2018</text><text class="cls-3" transform="translate(489.49 354.28) rotate(0.21)">2020</text><path class="cls-2" d="M44.5,41.5Z" transform="translate(-10.9 -51.19)"/><text class="cls-3" transform="translate(11.64 343.31)">−15</text><text class="cls-3" transform="translate(11.64 311.49)">−10</text><text class="cls-3" transform="translate(17.2 279.67)">−5</text><text class="cls-3" transform="translate(23.04 247.85)">0</text><text class="cls-3" transform="translate(23.04 216.03)">5</text><text class="cls-3" transform="translate(17.48 184.22)">10</text><text class="cls-3" transform="translate(17.48 152.4)">15</text><text class="cls-3" transform="translate(17.48 120.58)">20</text><text class="cls-3" transform="translate(17.48 88.76)">25</text><text class="cls-3" transform="translate(17.48 56.94)">30</text><text class="cls-3" transform="translate(17.48 25.13)">35</text><text class="cls-4" transform="translate(9.13 196.54) rotate(-90)">Inches of <tspan class="cls-5" x="43.54" y="0">r</tspan><tspan x="47.08" y="0">ainall</tspan></text><path class="cls-6" d="M55.4,181.4l22.7,86,22.7-76.8,22.7,46.1L146.2,58.5,169,211.6l22.7,63.5,22.7-65.7,22.7,28.3,22.7-46.3L282.5,167l22.7,73.2,22.7,18.1,22.7-1.5,22.7-15.5,22.7-7.2,22.7-59.5L441.4,265l22.7-89.3,22.7,25.2,22.7,57.5h22.7" transform="translate(-10.9 -51.19)"/><path class="cls-7" d="M55.4,274.7l22.7,86,22.7-76.8L123.5,330l22.7-178.2L169,304.9l22.7,63.5,22.7-65.7L237.1,331l22.7-46.3,22.7-24.4,22.7,73.2,22.7,18.1,22.7-1.5,22.7-15.5,22.7-7.2,22.7-59.5,22.7,90.4L464.1,269l22.7,25.2,22.7,57.5,22.7-41.9" transform="translate(-10.9 -51.19)"/><path class="cls-2" d="M294,5Z" transform="translate(-10.9 -51.19)"/><text class="cls-8" transform="translate(532.79 264.94) scale(0.88 1)"><tspan class="cls-9">R</tspan><tspan class="cls-10" x="7.86" y="0">ain</tspan><tspan class="cls-11" x="25.83" y="0">f</tspan><tspan x="30" y="0">all ab</tspan><tspan class="cls-12" x="61.48" y="0">ov</tspan><tspan x="75.28" y="0">e or </tspan></text><text class="cls-8" transform="translate(532.79 279.67) scale(0.88 1)">bel<tspan class="cls-12" x="17.9" y="0">o</tspan><tspan x="25.01" y="0">w normal</tspan></text><text class="cls-8" transform="translate(532.52 209.81) scale(0.88 1)"><tspan class="cls-13">T</tspan><tspan x="6.23" y="0">o</tspan><tspan class="cls-14" x="13.44" y="0">t</tspan><tspan class="cls-10" x="18.26" y="0">al </tspan><tspan class="cls-15" x="31.63" y="0">r</tspan><tspan class="cls-10" x="36.43" y="0">ain</tspan><tspan class="cls-11" x="54.39" y="0">f</tspan><tspan x="58.56" y="0">all</tspan></text></g></svg>