<?xml version="1.0" encoding="utf-8"?>
<!-- Generator: Adobe Illustrator 26.0.3, SVG Export Plug-In . SVG Version: 6.00 Build 0)  -->
<svg version="1.1" id="Layer_1" xmlns="http://www.w3.org/2000/svg" xmlns:xlink="http://www.w3.org/1999/xlink" x="0px" y="0px"
	 viewBox="0 0 574 441" style="enable-background:new 0 0 574 441;" xml:space="preserve">
<style type="text/css">
	.st0{fill:none;}
	.st1{display:none;fill:none;stroke:#DDDDDD;stroke-miterlimit:10;}
	.st2{font-family:'Helvetica';}
	.st3{font-size:10px;}
	.st4{display:none;}
	.st5{font-size:11px;}
	.st6{fill:none;stroke:#0000FF;stroke-width:2;stroke-miterlimit:10;}
	.st7{fill:none;stroke:#FF0000;stroke-width:2;stroke-miterlimit:10;}
	.st8{font-family:'Helvetica-Bold';}
	.st9{font-size:13px;}
	.st10{font-size:12px;}
</style>
<path pointer-events="none" class="st0" d="M44.5,41.5L44.5,41.5L44.5,41.5L44.5,41.5z"/>
<path pointer-events="none" class="st1" d="M44.5,41.5"/>
<path pointer-events="none" class="st0" d="M44.5,391.5L44.5,391.5L44.5,391.5L44.5,391.5z"/>
<text transform="matrix(1 3.586229e-03 -3.586229e-03 1 43.8453 404.4715)" class="st2 st3">2000</text>
<text transform="matrix(1 3.586229e-03 -3.586229e-03 1 91.3004 404.471)" class="st2 st3">2002</text>
<text transform="matrix(1 3.586229e-03 -3.586229e-03 1 136.7545 404.4715)" class="st2 st3">2004</text>
<text transform="matrix(1 3.586229e-03 -3.586229e-03 1 182.2096 403.471)" class="st2 st3">2006</text>
<text transform="matrix(1 3.586229e-03 -3.586229e-03 1 227.6637 403.4715)" class="st2 st3">2008</text>
<text transform="matrix(1 3.586229e-03 -3.586229e-03 1 273.1185 403.471)" class="st2 st3">2010</text>
<text transform="matrix(1 3.586229e-03 -3.586229e-03 1 318.5728 404.4714)" class="st2 st3">2012</text>
<text transform="matrix(1 3.586626e-03 -3.586626e-03 1 364.0277 404.4708)" class="st2 st3">2014</text>
<text transform="matrix(1 3.586626e-03 -3.586626e-03 1 409.482 405.4713)" class="st2 st3">2016</text>
<text transform="matrix(1 3.586626e-03 -3.586626e-03 1 454.9366 405.4713)" class="st2 st3">2018</text>
<text transform="matrix(1 3.586626e-03 -3.586626e-03 1 500.3912 405.4712)" class="st2 st3">2020</text>
<path pointer-events="none" class="st4" d="M44.5,391.5"/>
<path pointer-events="none" class="st0" d="M44.5,41.5L44.5,41.5L44.5,41.5L44.5,41.5z"/>
<text transform="matrix(1 0 0 1 22.5371 394.5)" class="st2 st3">−15</text>
<text transform="matrix(1 0 0 1 22.5371 362.6819)" class="st2 st3">−10</text>
<text transform="matrix(1 0 0 1 28.0986 330.8635)" class="st2 st3">−5</text>
<text transform="matrix(1 0 0 1 33.9385 299.0454)" class="st2 st3">0</text>
<text transform="matrix(1 0 0 1 33.9385 267.2273)" class="st2 st3">5</text>
<text transform="matrix(1 0 0 1 28.377 235.4091)" class="st2 st3">10</text>
<text transform="matrix(1 0 0 1 28.377 203.5909)" class="st2 st3">15</text>
<text transform="matrix(1 0 0 1 28.377 171.7727)" class="st2 st3">20</text>
<text transform="matrix(1 0 0 1 28.377 139.9546)" class="st2 st3">25</text>
<text transform="matrix(1 0 0 1 28.377 108.1364)" class="st2 st3">30</text>
<text transform="matrix(1 0 0 1 28.377 76.3182)" class="st2 st3">35</text>
<text transform="matrix(1 0 0 1 1440 720)" class="st10" style="font-family:'MyriadPro-Regular';">http://www.laalmanac.com/weather/we13.php</text>
<text transform="matrix(6.123234e-17 -1 1 6.123234e-17 20.0288 247.7363)" class="st2 st5">Inches of rainall</text>
<path pointer-events="none" class="st4" d="M44.5,41.5"/>
<path class="st6" d="M55.4,181.4l22.7,86l22.7-76.8l22.7,46.1l22.7-178.2L169,211.6l22.7,63.5l22.7-65.7l22.7,28.3l22.7-46.3
	l22.7-24.4l22.7,73.2l22.7,18.1l22.7-1.5l22.7-15.5l22.7-7.2l22.7-59.5l22.7,90.4l22.7-89.3l22.7,25.2l22.7,57.5h22.7"/>
<path class="st7" d="M55.4,274.7l22.7,86l22.7-76.8l22.7,46.1l22.7-178.2L169,304.9l22.7,63.5l22.7-65.7l22.7,28.3l22.7-46.3
	l22.7-24.4l22.7,73.2l22.7,18.1l22.7-1.5l22.7-15.5l22.7-7.2l22.7-59.5l22.7,90.4l22.7-89.3l22.7,25.2l22.7,57.5l22.7-41.9"/>
<path pointer-events="none" class="st0" d="M294,5L294,5L294,5L294,5z"/>
<text transform="matrix(1 0 0 1 209.4905 18)" class="st8 st9">Annual rainfall in California</text>
<text transform="matrix(1 0 0 1 17.8496 42.8242)" class="st8 st10">Amount of rainfall in California has fallen in California since 2000</text>
<path pointer-events="none" class="st4" d="M294,5"/>
<path class="st4" d="M44,41"/>
<text transform="matrix(0.8759 0 0 1 496.1914 362.6816)" class="st8 st3">Rainfall above or </text>
<text transform="matrix(0.8759 0 0 1 496.0161 374.6816)" class="st8 st3">below normal</text>
<text transform="matrix(0.8759 0 0 1 513.9585 252.2598)" class="st8 st3">Total rainfall</text>
<text transform="matrix(1 0 0 1 5.5637 434.2195)" class="st2 st3">Data source: Los Angeles Almanac</text>
</svg>
