<?xml version="1.0" encoding="utf-8"?>
<!-- Generator: Adobe Illustrator 25.3.1, SVG Export Plug-In . SVG Version: 6.00 Build 0)  -->
<svg version="1.1" xmlns="http://www.w3.org/2000/svg" xmlns:xlink="http://www.w3.org/1999/xlink" x="0px" y="0px"
	 viewBox="0 0 1175 400" style="enable-background:new 0 0 1175 400;" xml:space="preserve">
<style type="text/css">
	.st0{fill:#FFFFFF;}
	.st1{fill:none;}
	.st2{fill:none;stroke:#888888;stroke-miterlimit:10;}
	.st3{display:none;fill:none;stroke:#888888;stroke-miterlimit:10;}
	.st4{fill:none;stroke:#808080;stroke-width:2;stroke-miterlimit:10;stroke-dasharray:5,5;}
	.st5{fill:none;stroke:#FF7B22;stroke-width:3;stroke-miterlimit:10;}
	.st6{display:none;}
	.st7{fill:none;stroke:#000000;stroke-width:0.5;stroke-miterlimit:10;stroke-dasharray:3,3;}
	.st8{font-family:'RobotoMono-Regular';}
	.st9{font-size:8px;}
	.st10{opacity:0;enable-background:new    ;}
	.st11{font-size:13px;}
</style>
<g id="Layer_1">
	<rect x="63.5" y="25.5" class="st0" width="1048" height="349"/>
	<g transform="translate(41,27)">
		<g>
			<g transform="translate(0,0)">
				<path class="st1" d="M63.5,25.5h1000v300H63.5V25.5z"/>
				<g>
					<g>
						<g transform="translate(0.5,300.5)">
							<g>
								<g pointer-events="none">
									<line class="st2" x1="63.5" y1="25.5" x2="63.5" y2="30.5"/>
									<line class="st2" x1="101.5" y1="25.5" x2="101.5" y2="30.5"/>
									<line class="st2" x1="140.5" y1="25.5" x2="140.5" y2="30.5"/>
									<line class="st2" x1="178.5" y1="25.5" x2="178.5" y2="30.5"/>
									<line class="st2" x1="217.5" y1="25.5" x2="217.5" y2="30.5"/>
									<line class="st2" x1="255.5" y1="25.5" x2="255.5" y2="30.5"/>
									<line class="st2" x1="294.5" y1="25.5" x2="294.5" y2="30.5"/>
									<line class="st2" x1="332.5" y1="25.5" x2="332.5" y2="30.5"/>
									<line class="st2" x1="371.5" y1="25.5" x2="371.5" y2="30.5"/>
									<line class="st2" x1="409.5" y1="25.5" x2="409.5" y2="30.5"/>
									<line class="st2" x1="448.5" y1="25.5" x2="448.5" y2="30.5"/>
									<line class="st2" x1="486.5" y1="25.5" x2="486.5" y2="30.5"/>
									<line class="st2" x1="525.5" y1="25.5" x2="525.5" y2="30.5"/>
									<line class="st2" x1="563.5" y1="25.5" x2="563.5" y2="30.5"/>
									<line class="st2" x1="601.5" y1="25.5" x2="601.5" y2="30.5"/>
									<line class="st2" x1="640.5" y1="25.5" x2="640.5" y2="30.5"/>
									<line class="st2" x1="678.5" y1="25.5" x2="678.5" y2="30.5"/>
									<line class="st2" x1="717.5" y1="25.5" x2="717.5" y2="30.5"/>
									<line class="st2" x1="755.5" y1="25.5" x2="755.5" y2="30.5"/>
									<line class="st2" x1="794.5" y1="25.5" x2="794.5" y2="30.5"/>
									<line class="st2" x1="832.5" y1="25.5" x2="832.5" y2="30.5"/>
									<line class="st2" x1="871.5" y1="25.5" x2="871.5" y2="30.5"/>
									<line class="st2" x1="909.5" y1="25.5" x2="909.5" y2="30.5"/>
									<line class="st2" x1="948.5" y1="25.5" x2="948.5" y2="30.5"/>
									<line class="st2" x1="986.5" y1="25.5" x2="986.5" y2="30.5"/>
									<line class="st2" x1="1025.5" y1="25.5" x2="1025.5" y2="30.5"/>
									<line class="st2" x1="1063.5" y1="25.5" x2="1063.5" y2="30.5"/>
								</g>
								<g pointer-events="none">
									<line class="st2" x1="63.5" y1="25.5" x2="1063.5" y2="25.5"/>
								</g>
							</g>
						</g>
					</g>
					<g>
						<g transform="translate(0.5,0.5)">
							<g>
								<g pointer-events="none">
									<line class="st2" x1="63.5" y1="325.5" x2="58.5" y2="325.5"/>
									<line class="st2" x1="63.5" y1="298.5" x2="58.5" y2="298.5"/>
									<line class="st2" x1="63.5" y1="270.5" x2="58.5" y2="270.5"/>
									<line class="st2" x1="63.5" y1="243.5" x2="58.5" y2="243.5"/>
									<line class="st2" x1="63.5" y1="216.5" x2="58.5" y2="216.5"/>
									<line class="st2" x1="63.5" y1="189.5" x2="58.5" y2="189.5"/>
									<line class="st2" x1="63.5" y1="161.5" x2="58.5" y2="161.5"/>
									<line class="st2" x1="63.5" y1="134.5" x2="58.5" y2="134.5"/>
									<line class="st2" x1="63.5" y1="107.5" x2="58.5" y2="107.5"/>
									<line class="st2" x1="63.5" y1="80.5" x2="58.5" y2="80.5"/>
									<line class="st2" x1="63.5" y1="52.5" x2="58.5" y2="52.5"/>
									<line class="st2" x1="63.5" y1="25.5" x2="58.5" y2="25.5"/>
								</g>
								<g pointer-events="none">
									<line class="st2" x1="63.5" y1="325.5" x2="63.5" y2="25.5"/>
								</g>
							</g>
						</g>
					</g>
					<g>
						<path class="st4" d="M63.5,52.8H102h38.5h38.5h38.5h38.5h38.5h38.5h38.5h38.5h38.5h38.5h38.5h38.2h38.5h38.5h38.5h38.5h38.5
							h38.5h38.5h38.5h38.5h38.5h38.5h38.5h38.5"/>
					</g>
					<g>
						<path class="st5" d="M63.5,116.5l38.5-68l38.5,3.2l38.5-5.2l38.5-1.2l38.5,11.1l38.5-0.9l38.5-1.3l38.5,4l38.5,3l38.5,67.7
							l38.5,119.8l38.5,43.4l38.2,9l38.5,3.7l38.5-0.6l38.5-2.3l38.5-0.4l38.5-1.9l38.5-1.3l38.5-2.9l38.5-3.6l38.5-0.9l38.5-6.6
							l38.5-3.9l38.5-5.2l38.5-1.4"/>
					</g>
				</g>
			</g>
		</g>
	</g>
</g>
<g id="Annotation">
	<line class="st7" x1="191.4" y1="60.5" x2="191.4" y2="353"/>
	<line class="st7" x1="417.5" y1="60.5" x2="417.5" y2="353"/>
	<line class="st7" x1="448.2" y1="60.5" x2="448.2" y2="353"/>
	<line class="st7" x1="507" y1="60.5" x2="507" y2="353"/>
	<line class="st7" x1="953.8" y1="60.5" x2="953.8" y2="353"/>
</g>
<g id="Text">
	<text transform="matrix(1 0 0 1 195.5813 324.4767)" class="st8 st9">Jan. 21, 2020:</text>
	<text transform="matrix(1 0 0 1 195.5813 334.0767)" class="st8 st9">First confirmed Covid-1</text>
	<text transform="matrix(1 0 0 1 195.5813 343.6767)" class="st8 st9">case in the US</text>
	<text transform="matrix(1 0 0 1 421.6931 324.4763)" class="st8 st9">Mar. 1, 2020:</text>
	<text transform="matrix(1 0 0 1 421.6931 334.0763)" class="st8 st9">First confirmed Covid-19</text>
	<text transform="matrix(1 0 0 1 421.6931 343.6763)" class="st8 st9">case in New York State</text>
	<text transform="matrix(1 0 0 1 452.3675 274.1817)" class="st8 st9">Mar. 7, 2020:</text>
	<text transform="matrix(1 0 0 1 452.3675 283.7817)" class="st8 st9">State of emergency</text>
	<text transform="matrix(1 0 0 1 452.3675 293.3817)" class="st8 st9">declaration in NY State</text>
	<text transform="matrix(1 0 0 1 511.186 147.5999)" class="st8 st9">Mar. 18, 2020:</text>
	<text transform="matrix(1 0 0 1 511.186 157.1999)" class="st8 st9">State mandate to all</text>
	<text transform="matrix(1 0 0 1 511.186 166.7999)" class="st8 st9">non-essential businesses</text>
	<text transform="matrix(1 0 0 1 511.186 176.3999)" class="st8 st9">to reduce workforce density by 50%</text>
	<text transform="matrix(1 0 0 1 957.9479 334.0764)" class="st8 st9">Jun. 8, 2020:</text>
	<text transform="matrix(1 0 0 1 957.9479 343.6765)" class="st8 st9">Phase 1 reopening starts</text>
	<g pointer-events="none">
		<text transform="matrix(1 0 0 1 105 368)" class="st8 st9">Jan 5</text>
		<text transform="matrix(1 0 0 1 128.4581 368)" class="st10 st8 st9">Jan 12</text>
		<text transform="matrix(1 0 0 1 166.9285 368)" class="st8 st9">Jan 19</text>
		<text transform="matrix(1 0 0 1 205.3988 368)" class="st10 st8 st9">Jan 26</text>
		<text transform="matrix(1 0 0 1 243.315 368)" class="st8 st9">Feb 2</text>
		<text transform="matrix(1 0 0 1 281.7853 368)" class="st10 st8 st9">Feb 09</text>
		<text transform="matrix(1 0 0 1 320.2556 368)" class="st8 st9">Feb 16</text>
		<text transform="matrix(1 0 0 1 358.726 368)" class="st10 st8 st9">Feb 23</text>
		<text transform="matrix(1 0 0 1 398.8712 368)" class="st8 st9">March</text>
		<text transform="matrix(1 0 0 1 435.6716 368)" class="st10 st8 st9">Mar 08</text>
		<text transform="matrix(1 0 0 1 474.1419 368)" class="st8 st9">Mar 15</text>
		<text transform="matrix(1 0 0 1 512.6123 368)" class="st10 st8 st9">Mar 22</text>
		<text transform="matrix(1 0 0 1 551.0826 368)" class="st8 st9">Mar 29</text>
		<text transform="matrix(1 0 0 1 590.1541 368)" class="st10 st8 st9">Apr 05</text>
		<text transform="matrix(1 0 0 1 628.6244 368)" class="st8 st9">Apr 12</text>
		<text transform="matrix(1 0 0 1 667.0947 368)" class="st10 st8 st9">Apr 19</text>
		<text transform="matrix(1 0 0 1 705.5651 368)" class="st8 st9">Apr 26</text>
		<text transform="matrix(1 0 0 1 742.3704 368)" class="st10 st8 st9">May 03</text>
		<text transform="matrix(1 0 0 1 780.8408 368)" class="st8 st9">May 10</text>
		<text transform="matrix(1 0 0 1 819.3111 368)" class="st10 st8 st9">May 17</text>
		<text transform="matrix(1 0 0 1 857.7814 368)" class="st8 st9">May 24</text>
		<text transform="matrix(1 0 0 1 896.2518 368)" class="st10 st8 st9">May 31</text>
		<text transform="matrix(1 0 0 1 936.1064 368)" class="st8 st9">Jun 7</text>
		<text transform="matrix(1 0 0 1 974.5768 368)" class="st10 st8 st9">Jun 14</text>
		<text transform="matrix(1 0 0 1 1013.0471 368)" class="st8 st9">Jun 21</text>
		<text transform="matrix(1 0 0 1 1051.5175 368)" class="st10 st8 st9">Jun 28</text>
		<text transform="matrix(1 0 0 1 1081.3154 368)" class="st8 st9">Jul 5</text>
	</g>
	<g pointer-events="none">
		<text transform="matrix(1 0 0 1 69.0938 356)" class="st8 st9">-100%</text>
		<text transform="matrix(1 0 0 1 74.6553 328.7273)" class="st8 st9">-90%</text>
		<text transform="matrix(1 0 0 1 74.6553 301.4545)" class="st8 st9">-80%</text>
		<text transform="matrix(1 0 0 1 74.6553 274.1818)" class="st8 st9">-70%</text>
		<text transform="matrix(1 0 0 1 74.6553 246.9091)" class="st8 st9">-60%</text>
		<text transform="matrix(1 0 0 1 74.6553 219.6364)" class="st8 st9">-50%</text>
		<text transform="matrix(1 0 0 1 74.6553 192.3636)" class="st8 st9">-40%</text>
		<text transform="matrix(1 0 0 1 74.6553 165.0909)" class="st8 st9">-30%</text>
		<text transform="matrix(1 0 0 1 74.6553 137.8182)" class="st8 st9">-20%</text>
		<text transform="matrix(1 0 0 1 74.6553 110.5455)" class="st8 st9">-10%</text>
		<text transform="matrix(1 0 0 1 83.5469 83.2727)" class="st8 st9">0%</text>
		<text transform="matrix(1 0 0 1 77.9854 56)" class="st8 st9">10%</text>
	</g>
	<g>
		<g pointer-events="none">
			<text transform="matrix(1 0 0 1 408.0706 40.5)" class="st8 st11">Difference in Weekly Subway Trips 2020 vs 2019</text>
		</g>
	</g>
</g>
<g id="ColorPallette">
	<g>
		<defs>
			<rect id="SVGID_1_" x="538.6" y="552.8" width="265.7" height="209.9"/>
		</defs>
		<clipPath id="SVGID_2_">
			<use xlink:href="#SVGID_1_"  style="overflow:visible;"/>
		</clipPath>
		<g style="clip-path:url(#SVGID_2_);">
			
				<image style="overflow:visible;" width="3360" height="2100" xlink:href="1D5BD79A060740F.png"  transform="matrix(0.5 0 0 0.5 -215.8306 -243.7725)">
			</image>
		</g>
	</g>
</g>
</svg>
